
<!-- <svg width="429px" height="800px" viewBox="120 0 429 800" version="1.1" xmlns="http://www.w3.org/2000/svg" xmlns:xlink="http://www.w3.org/1999/xlink"> -->
    <!-- Generator: Sketch 41.2 (35397) - http://www.bohemiancoding.com/sketch -->
    <!-- <desc>Created with Sketch.</desc>
    <defs>
        <rect id="path-1" x="0" y="0" width="429" height="800"></rect>
    </defs>
    <g id="Cryptocracy" stroke="none" stroke-width="1" fill="none" fill-rule="evenodd" transform="translate(120.000000, 0.000000)">
        <mask id="mask-2" fill="white">
            <use xlink:href="#path-1"></use>
        </mask>
        <g id="Mask"></g>
        <text mask="url(#mask-2)" font-family="DecimaMonoPro" font-size="255" font-weight="normal" letter-spacing="7.08333206" fill-opacity="0.6" fill="#21CE99">
            <tspan x="-20" y="89">Cry</tspan>
            <tspan x="-20" y="344">pto</tspan>
            <tspan x="-20" y="599">cra</tspan>
            <tspan x="-20" y="854">cy</tspan>
        </text>
    </g>
</svg> -->


<svg width="429px" height="800px" viewBox="120 0 429 800" version="1.1" xmlns="http://www.w3.org/2000/svg" xmlns:xlink="http://www.w3.org/1999/xlink">
    <!-- Generator: Sketch 41.2 (35397) - http://www.bohemiancoding.com/sketch -->
    <desc>Created with Sketch.</desc>
    <defs>
        <rect id="path-1" x="0" y="0" width="429" height="800"></rect>
    </defs>
    <g id="Cryptocracy" stroke="none" stroke-width="1" fill="none" fill-rule="evenodd" transform="translate(120.000000, 0.000000)">
        <mask id="mask-2" fill="white">
            <use xlink:href="#path-1"></use>
        </mask>
        <g id="Mask"></g>
        <path d="M107.755,44.63 C107.755,57.7200654 103.080047,68.8124545 93.73,77.9075 C84.3799532,87.0025455 72.8200688,91.55 59.05,91.55 C45.1099303,91.55 33.4225472,86.9600459 23.9875,77.78 C14.5524528,68.5999541 9.835,57.4650654 9.835,44.375 L9.835,-45.13 C9.835,-58.2200655 14.5524528,-69.3124545 23.9875,-78.4075 C33.4225472,-87.5025455 45.1099303,-92.05 59.05,-92.05 C73.5000722,-92.05 85.1449558,-87.4175463 93.985,-78.1525 C102.825044,-68.8874537 107.245,-59.4950476 107.245,-49.975 C107.245,-48.6149932 106.735005,-47.4250051 105.715,-46.405 C104.694995,-45.3849949 103.250009,-44.875 101.38,-44.875 L91.69,-44.875 C88.1199821,-44.875 86.1650017,-46.574983 85.825,-49.975 C85.3149974,-55.0750255 82.5100255,-60.0049762 77.41,-64.765 C72.3099745,-69.5250238 66.1900357,-71.905 59.05,-71.905 C51.2299609,-71.905 44.6850263,-69.3550255 39.415,-64.255 C34.1449736,-59.1549745 31.51,-52.8650374 31.51,-45.385 L31.51,44.63 C31.51,52.1100374 34.1449736,58.4424741 39.415,63.6275 C44.6850263,68.8125259 51.2299609,71.405 59.05,71.405 C66.5300374,71.405 72.9474732,68.8125259 78.3025,63.6275 C83.6575268,58.4424741 86.335,52.1100374 86.335,44.63 C86.335,43.2699932 86.8449949,42.0800051 87.865,41.06 C88.8850051,40.0399949 90.3299906,39.53 92.2,39.53 L101.89,39.53 C103.760009,39.53 105.204995,40.0399949 106.225,41.06 C107.245005,42.0800051 107.755,43.2699932 107.755,44.63 Z M234.943332,-41.05 C246.673391,-41.05 255.980798,-37.1825387 262.865832,-29.4475 C269.750866,-21.7124613 273.193332,-14.1050374 273.193332,-6.625 C273.193332,-3.5649847 271.748347,-2.035 268.858332,-2.035 L257.128332,-2.035 C254.408318,-2.035 252.878334,-3.47998555 252.538332,-6.37 C252.02833,-10.4500204 250.030849,-14.189983 246.545832,-17.59 C243.060815,-20.990017 238.683358,-22.69 233.413332,-22.69 C226.273296,-22.69 219.983359,-20.1400255 214.543332,-15.04 C209.103305,-9.9399745 206.383332,-4.1600323 206.383332,2.3 L206.383332,70.64 L255.088332,70.64 C256.278338,70.64 257.340827,71.0649957 258.275832,71.915 C259.210837,72.7650042 259.678332,73.8699932 259.678332,75.23 L259.678332,84.41 C259.678332,85.7700068 259.210837,86.8749957 258.275832,87.725 C257.340827,88.5750042 256.278338,89 255.088332,89 L163.798332,89 C162.608326,89 161.545837,88.5750042 160.610832,87.725 C159.675827,86.8749957 159.208332,85.7700068 159.208332,84.41 L159.208332,75.23 C159.208332,73.8699932 159.675827,72.7650042 160.610832,71.915 C161.545837,71.0649957 162.608326,70.64 163.798332,70.64 L185.983332,70.64 L185.983332,-33.91 C185.983332,-36.9700153 187.938313,-38.5 191.848332,-38.5 L200.008332,-38.5 C203.918352,-38.5 205.873332,-36.9700153 205.873332,-33.91 L205.873332,-27.535 C212.673366,-36.5450451 222.363269,-41.05 234.943332,-41.05 Z M430.216664,-30.085 L369.781664,130.31 C368.761659,133.370015 366.721679,134.9 363.661664,134.9 L353.461664,134.9 C350.57165,134.9 349.126664,133.88001 349.126664,131.84 C349.126664,130.819995 349.55166,129.035013 350.401664,126.485 L365.446664,84.92 L322.606664,-30.085 C321.75666,-32.6350128 321.331664,-34.4199949 321.331664,-35.44 C321.331664,-37.4800102 322.77665,-38.5 325.666664,-38.5 L337.396664,-38.5 C340.456679,-38.5 342.496659,-36.9700153 343.516664,-33.91 L376.921664,58.91 L410.071664,-33.91 C411.091669,-36.9700153 413.131649,-38.5 416.191664,-38.5 L427.156664,-38.5 C430.046679,-38.5 431.491664,-37.4800102 431.491664,-35.44 C431.491664,-34.4199949 431.066668,-32.6350128 430.216664,-30.085 Z M87.355,300.395 L87.355,259.595 C87.355,251.774961 84.5925276,245.230026 79.0675,239.96 C73.5424724,234.689974 66.4450433,232.055 57.775,232.055 C49.1049566,232.055 41.9225285,234.732473 36.2275,240.0875 C30.5324715,245.442527 27.685,252.029961 27.685,259.85 L27.685,300.395 C27.685,308.215039 30.5324715,314.759974 36.2275,320.03 C41.9225285,325.300026 49.1049566,327.935 57.775,327.935 C66.4450433,327.935 73.5424724,325.300026 79.0675,320.03 C84.5925276,314.759974 87.355,308.215039 87.355,300.395 Z M27.685,334.565 L27.94,385.31 C27.94,388.370015 25.9850195,389.9 22.075,389.9 L13.15,389.9 C9.23998045,389.9 7.285,388.370015 7.285,385.31 L7.285,221.09 C7.285,218.029985 9.23998045,216.5 13.15,216.5 L20.545,216.5 C24.4550195,216.5 26.41,218.029985 26.41,221.09 L26.41,226.955 C27.0900034,225.934995 28.1949923,224.702507 29.725,223.2575 C31.2550076,221.812493 34.8674715,219.900012 40.5625,217.52 C46.2575285,215.139988 52.6749643,213.95 59.815,213.95 C73.415068,213.95 84.8899532,218.497455 94.24,227.5925 C103.590047,236.687545 108.265,247.779935 108.265,260.87 L108.265,299.63 C108.265,312.550065 103.547547,323.599954 94.1125,332.78 C84.6774528,341.960046 73.2450671,346.55 59.815,346.55 C53.1849668,346.55 47.1925268,345.53001 41.8375,343.49 C36.4824732,341.44999 32.7850102,339.41001 30.745,337.37 L27.685,334.565 Z M203.323332,187.685 L203.323332,216.5 L263.503332,216.5 C264.863339,216.5 265.968328,216.924996 266.818332,217.775 C267.668336,218.625004 268.093332,219.729993 268.093332,221.09 L268.093332,230.27 C268.093332,231.630007 267.668336,232.734996 266.818332,233.585 C265.968328,234.435004 264.863339,234.86 263.503332,234.86 L203.323332,234.86 L203.323332,303.455 C203.323332,310.425035 205.53331,316.289976 209.953332,321.05 C214.373354,325.810024 220.663291,328.19 228.823332,328.19 C235.963368,328.19 241.573312,326.107521 245.653332,321.9425 C249.733352,317.777479 252.113329,313.230025 252.793332,308.3 C253.133334,305.409986 254.578319,303.965 257.128332,303.965 L268.603332,303.965 C269.963339,303.965 271.068328,304.432495 271.918332,305.3675 C272.768336,306.302505 273.193332,307.364994 273.193332,308.555 C273.193332,312.46502 272.42834,316.41748 270.898332,320.4125 C269.368324,324.40752 267.030848,328.44498 263.885832,332.525 C260.740816,336.60502 256.065863,339.962487 249.860832,342.5975 C243.655801,345.232513 236.473373,346.55 228.313332,346.55 C213.183256,346.55 201.79337,342.640039 194.143332,334.82 C186.493294,326.999961 182.668332,317.225059 182.668332,305.495 L182.668332,234.86 L163.798332,234.86 C162.608326,234.86 161.545837,234.435004 160.610832,233.585 C159.675827,232.734996 159.208332,231.630007 159.208332,230.27 L159.208332,221.09 C159.208332,219.729993 159.675827,218.625004 160.610832,217.775 C161.545837,216.924996 162.608326,216.5 163.798332,216.5 L182.668332,216.5 L182.668332,187.685 C182.668332,184.624985 184.623313,183.095 188.533332,183.095 L197.713332,183.095 C201.453351,183.095 203.323332,184.624985 203.323332,187.685 Z M427.156664,260.87 L427.156664,299.63 C427.156664,312.720065 422.439211,323.812455 413.004164,332.9075 C403.569117,342.002545 391.456738,346.55 376.666664,346.55 C361.536588,346.55 349.296711,342.002545 339.946664,332.9075 C330.596617,323.812455 325.921664,312.635066 325.921664,299.375 L325.921664,260.87 C325.921664,247.779935 330.639117,236.687545 340.074164,227.5925 C349.509211,218.497455 361.706589,213.95 376.666664,213.95 C391.456738,213.95 403.569117,218.539954 413.004164,227.72 C422.439211,236.900046 427.156664,247.949935 427.156664,260.87 Z M406.246664,300.905 L406.246664,259.595 C406.246664,251.944962 403.569191,245.442527 398.214164,240.0875 C392.859137,234.732473 385.676709,232.055 376.666664,232.055 C367.656619,232.055 360.389192,234.732473 354.864164,240.0875 C349.339136,245.442527 346.576664,251.944962 346.576664,259.595 L346.576664,300.65 C346.576664,308.300038 349.339136,314.844973 354.864164,320.285 C360.389192,325.725027 367.656619,328.445 376.666664,328.445 C385.676709,328.445 392.859137,325.767527 398.214164,320.4125 C403.569191,315.057473 406.246664,308.555038 406.246664,300.905 Z M58.285,487.565 C49.4449558,487.565 42.2625276,490.284973 36.7375,495.725 C31.2124724,501.165027 28.45,507.624963 28.45,515.105 L28.45,555.65 C28.45,563.470039 31.2124724,570.057473 36.7375,575.4125 C42.2625276,580.767527 49.5299549,583.445 58.54,583.445 C66.7000408,583.445 73.2024758,581.065024 78.0475,576.305 C82.8925242,571.544976 85.6549966,566.445027 86.335,561.005 C86.6750017,558.114986 88.2049864,556.67 90.925,556.67 L102.655,556.67 C103.845006,556.67 104.907495,557.094996 105.8425,557.945 C106.777505,558.795004 107.245,559.899993 107.245,561.26 C107.245,570.100044 102.867544,579.024955 94.1125,588.035 C85.3574562,597.045045 73.4150756,601.55 58.285,601.55 C43.1549243,601.55 30.9575463,596.875047 21.6925,587.525 C12.4274537,578.174953 7.795,567.125064 7.795,554.375 L7.795,515.87 C7.795,502.949935 12.4699532,491.900046 21.82,482.72 C31.1700467,473.539954 43.3249252,468.95 58.285,468.95 C66.7850425,468.95 74.3074673,470.394986 80.8525,473.285 C87.3975327,476.175014 92.4124826,479.872477 95.8975,484.3775 C99.3825174,488.882523 101.974991,493.302478 103.675,497.6375 C105.375008,501.972522 106.225,506.009981 106.225,509.75 C106.225,511.110007 105.757505,512.214996 104.8225,513.065 C103.887495,513.915004 102.825006,514.34 101.635,514.34 L89.905,514.34 C87.1849864,514.34 85.6550017,512.895014 85.315,510.005 C84.9749983,507.794989 84.3800042,505.627511 83.53,503.5025 C82.6799957,501.377489 81.3200093,498.997513 79.45,496.3625 C77.5799906,493.727487 74.8175183,491.602508 71.1625,489.9875 C67.5074817,488.372492 63.2150246,487.565 58.285,487.565 Z M234.943332,468.95 C246.673391,468.95 255.980798,472.817461 262.865832,480.5525 C269.750866,488.287539 273.193332,495.894963 273.193332,503.375 C273.193332,506.435015 271.748347,507.965 268.858332,507.965 L257.128332,507.965 C254.408318,507.965 252.878334,506.520014 252.538332,503.63 C252.02833,499.54998 250.030849,495.810017 246.545832,492.41 C243.060815,489.009983 238.683358,487.31 233.413332,487.31 C226.273296,487.31 219.983359,489.859974 214.543332,494.96 C209.103305,500.060025 206.383332,505.839968 206.383332,512.3 L206.383332,580.64 L255.088332,580.64 C256.278338,580.64 257.340827,581.064996 258.275832,581.915 C259.210837,582.765004 259.678332,583.869993 259.678332,585.23 L259.678332,594.41 C259.678332,595.770007 259.210837,596.874996 258.275832,597.725 C257.340827,598.575004 256.278338,599 255.088332,599 L163.798332,599 C162.608326,599 161.545837,598.575004 160.610832,597.725 C159.675827,596.874996 159.208332,595.770007 159.208332,594.41 L159.208332,585.23 C159.208332,583.869993 159.675827,582.765004 160.610832,581.915 C161.545837,581.064996 162.608326,580.64 163.798332,580.64 L185.983332,580.64 L185.983332,476.09 C185.983332,473.029985 187.938313,471.5 191.848332,471.5 L200.008332,471.5 C203.918352,471.5 205.873332,473.029985 205.873332,476.09 L205.873332,482.465 C212.673366,473.454955 222.363269,468.95 234.943332,468.95 Z M403.441664,536.78 L370.036664,539.075 C363.406631,539.585003 357.881686,541.922479 353.461664,546.0875 C349.041642,550.252521 346.831664,555.394969 346.831664,561.515 C346.831664,567.46503 349.25414,572.564979 354.099164,576.815 C358.944188,581.065021 364.851629,583.19 371.821664,583.19 C380.831709,583.19 388.354134,580.597526 394.389164,575.4125 C400.424194,570.227474 403.441664,564.745029 403.441664,558.965 L403.441664,536.78 Z M424.096664,510.26 L424.096664,594.41 C424.096664,597.470015 422.141684,599 418.231664,599 L410.071664,599 C406.161645,599 404.206664,597.470015 404.206664,594.41 L404.206664,587.78 C403.35666,588.800005 402.124172,590.074992 400.509164,591.605 C398.894156,593.135008 395.239193,595.174987 389.544164,597.725 C383.849136,600.275013 377.601698,601.55 370.801664,601.55 C358.561603,601.55 348.106707,597.767538 339.436664,590.2025 C330.766621,582.637462 326.431664,573.160057 326.431664,561.77 C326.431664,550.719945 330.511623,541.327539 338.671664,533.5925 C346.831705,525.857461 356.776605,521.565004 368.506664,520.715 L403.441664,518.42 L403.441664,511.79 C403.441664,505.159967 401.146687,499.465024 396.556664,494.705 C391.966641,489.944976 385.931702,487.565 378.451664,487.565 C371.991632,487.565 366.636685,488.924986 362.386664,491.645 C358.136643,494.365014 355.246672,497.76498 353.716664,501.845 C352.356657,504.735014 350.826673,506.18 349.126664,506.18 L338.416664,506.18 C337.056657,506.18 335.951668,505.755004 335.101664,504.905 C334.25166,504.054996 333.826664,502.950007 333.826664,501.59 C333.826664,494.959967 338.076622,487.862538 346.576664,480.2975 C355.076707,472.732462 365.7016,468.95 378.451664,468.95 C393.071737,468.95 404.334125,472.859961 412.239164,480.68 C420.144204,488.500039 424.096664,498.35994 424.096664,510.26 Z M58.285,742.565 C49.4449558,742.565 42.2625276,745.284973 36.7375,750.725 C31.2124724,756.165027 28.45,762.624963 28.45,770.105 L28.45,810.65 C28.45,818.470039 31.2124724,825.057473 36.7375,830.4125 C42.2625276,835.767527 49.5299549,838.445 58.54,838.445 C66.7000408,838.445 73.2024758,836.065024 78.0475,831.305 C82.8925242,826.544976 85.6549966,821.445027 86.335,816.005 C86.6750017,813.114986 88.2049864,811.67 90.925,811.67 L102.655,811.67 C103.845006,811.67 104.907495,812.094996 105.8425,812.945 C106.777505,813.795004 107.245,814.899993 107.245,816.26 C107.245,825.100044 102.867544,834.024955 94.1125,843.035 C85.3574562,852.045045 73.4150756,856.55 58.285,856.55 C43.1549243,856.55 30.9575463,851.875047 21.6925,842.525 C12.4274537,833.174953 7.795,822.125064 7.795,809.375 L7.795,770.87 C7.795,757.949935 12.4699532,746.900046 21.82,737.72 C31.1700467,728.539954 43.3249252,723.95 58.285,723.95 C66.7850425,723.95 74.3074673,725.394986 80.8525,728.285 C87.3975327,731.175014 92.4124826,734.872477 95.8975,739.3775 C99.3825174,743.882523 101.974991,748.302478 103.675,752.6375 C105.375008,756.972522 106.225,761.009981 106.225,764.75 C106.225,766.110007 105.757505,767.214996 104.8225,768.065 C103.887495,768.915004 102.825006,769.34 101.635,769.34 L89.905,769.34 C87.1849864,769.34 85.6550017,767.895014 85.315,765.005 C84.9749983,762.794989 84.3800042,760.627511 83.53,758.5025 C82.6799957,756.377489 81.3200093,753.997513 79.45,751.3625 C77.5799906,748.727487 74.8175183,746.602508 71.1625,744.9875 C67.5074817,743.372492 63.2150246,742.565 58.285,742.565 Z M270.133332,734.915 L209.698332,895.31 C208.678327,898.370015 206.638347,899.9 203.578332,899.9 L193.378332,899.9 C190.488318,899.9 189.043332,898.88001 189.043332,896.84 C189.043332,895.819995 189.468328,894.035013 190.318332,891.485 L205.363332,849.92 L162.523332,734.915 C161.673328,732.364987 161.248332,730.580005 161.248332,729.56 C161.248332,727.51999 162.693318,726.5 165.583332,726.5 L177.313332,726.5 C180.373347,726.5 182.413327,728.029985 183.433332,731.09 L216.838332,823.91 L249.988332,731.09 C251.008337,728.029985 253.048317,726.5 256.108332,726.5 L267.073332,726.5 C269.963347,726.5 271.408332,727.51999 271.408332,729.56 C271.408332,730.580005 270.983336,732.364987 270.133332,734.915 Z" fill-opacity="0.6" fill="#21CE99" mask="url(#mask-2)"></path>
    </g>
</svg>
