<svg width="220px" height="514px" viewBox="198 137 220 514" version="1.1" xmlns="http://www.w3.org/2000/svg" xmlns:xlink="http://www.w3.org/1999/xlink">
    <!-- Generator: Sketch 41.2 (35397) - http://www.bohemiancoding.com/sketch -->
    <desc>Created with Sketch.</desc>
    <defs></defs>
    <path d="M250.132,208.032 C250.132,214.808034 247.712024,220.549976 242.872,225.258 C238.031976,229.966024 232.048036,232.32 224.92,232.32 C217.703964,232.32 211.654024,229.944024 206.77,225.192 C201.885976,220.439976 199.444,214.676034 199.444,207.9 L199.444,161.568 C199.444,154.791966 201.885976,149.050024 206.77,144.342 C211.654024,139.633976 217.703964,137.28 224.92,137.28 C232.400037,137.28 238.427977,139.677976 243.004,144.474 C247.580023,149.270024 249.868,154.131975 249.868,159.06 C249.868,159.764004 249.604003,160.379997 249.076,160.908 C248.547997,161.436003 247.800005,161.7 246.832,161.7 L241.816,161.7 C239.967991,161.7 238.956001,160.820009 238.78,159.06 C238.515999,156.419987 237.064013,153.868012 234.424,151.404 C231.783987,148.939988 228.616018,147.708 224.92,147.708 C220.87198,147.708 217.484014,149.027987 214.756,151.668 C212.027986,154.308013 210.664,157.563981 210.664,161.436 L210.664,208.032 C210.664,211.904019 212.027986,215.181987 214.756,217.866 C217.484014,220.550013 220.87198,221.892 224.92,221.892 C228.792019,221.892 232.113986,220.550013 234.886,217.866 C237.658014,215.181987 239.044,211.904019 239.044,208.032 C239.044,207.327996 239.307997,206.712003 239.836,206.184 C240.364003,205.655997 241.111995,205.392 242.08,205.392 L247.096,205.392 C248.064005,205.392 248.811997,205.655997 249.34,206.184 C249.868003,206.712003 250.132,207.327996 250.132,208.032 Z M315.970666,163.68 C322.042696,163.68 326.860648,165.68198 330.424666,169.686 C333.988684,173.69002 335.770666,177.627981 335.770666,181.5 C335.770666,183.084008 335.022674,183.876 333.526666,183.876 L327.454666,183.876 C326.046659,183.876 325.254667,183.128007 325.078666,181.632 C324.814665,179.519989 323.780675,177.584009 321.976666,175.824 C320.172657,174.063991 317.90668,173.184 315.178666,173.184 C311.482648,173.184 308.22668,174.503987 305.410666,177.144 C302.594652,179.784013 301.186666,182.775983 301.186666,186.12 L301.186666,221.496 L326.398666,221.496 C327.014669,221.496 327.564664,221.715998 328.048666,222.156 C328.532668,222.596002 328.774666,223.167996 328.774666,223.872 L328.774666,228.624 C328.774666,229.328004 328.532668,229.899998 328.048666,230.34 C327.564664,230.780002 327.014669,231 326.398666,231 L279.142666,231 C278.526663,231 277.976668,230.780002 277.492666,230.34 C277.008664,229.899998 276.766666,229.328004 276.766666,228.624 L276.766666,223.872 C276.766666,223.167996 277.008664,222.596002 277.492666,222.156 C277.976668,221.715998 278.526663,221.496 279.142666,221.496 L290.626666,221.496 L290.626666,167.376 C290.626666,165.791992 291.638656,165 293.662666,165 L297.886666,165 C299.910676,165 300.922666,165.791992 300.922666,167.376 L300.922666,170.676 C304.442684,166.011977 309.458633,163.68 315.970666,163.68 Z M417.053332,169.356 L385.769332,252.384 C385.241329,253.968008 384.18534,254.76 382.601332,254.76 L377.321332,254.76 C375.825325,254.76 375.077332,254.232005 375.077332,253.176 C375.077332,252.647997 375.29733,251.724007 375.737332,250.404 L383.525332,228.888 L361.349332,169.356 C360.90933,168.035993 360.689332,167.112003 360.689332,166.584 C360.689332,165.527995 361.437325,165 362.933332,165 L369.005332,165 C370.58934,165 371.645329,165.791992 372.173332,167.376 L389.465332,215.424 L406.625332,167.376 C407.153335,165.791992 408.209324,165 409.793332,165 L415.469332,165 C416.96534,165 417.713332,165.527995 417.713332,166.584 C417.713332,167.112003 417.493334,168.035993 417.053332,169.356 Z M239.572,340.428 L239.572,319.308 C239.572,315.25998 238.142014,311.872014 235.282,309.144 C232.421986,306.415986 228.748022,305.052 224.26,305.052 C219.771978,305.052 216.054015,306.437986 213.106,309.21 C210.157985,311.982014 208.684,315.39198 208.684,319.44 L208.684,340.428 C208.684,344.47602 210.157985,347.863986 213.106,350.592 C216.054015,353.320014 219.771978,354.684 224.26,354.684 C228.748022,354.684 232.421986,353.320014 235.282,350.592 C238.142014,347.863986 239.572,344.47602 239.572,340.428 Z M208.684,358.116 L208.816,384.384 C208.816,385.968008 207.80401,386.76 205.78,386.76 L201.16,386.76 C199.13599,386.76 198.124,385.968008 198.124,384.384 L198.124,299.376 C198.124,297.791992 199.13599,297 201.16,297 L204.988,297 C207.01201,297 208.024,297.791992 208.024,299.376 L208.024,302.412 C208.376002,301.883997 208.947996,301.246004 209.74,300.498 C210.532004,299.749996 212.401985,298.760006 215.35,297.528 C218.298015,296.295994 221.619982,295.68 225.316,295.68 C232.356035,295.68 238.295976,298.033976 243.136,302.742 C247.976024,307.450024 250.396,313.191966 250.396,319.968 L250.396,340.032 C250.396,346.720033 247.954024,352.439976 243.07,357.192 C238.185976,361.944024 232.268035,364.32 225.316,364.32 C221.883983,364.32 218.782014,363.792005 216.01,362.736 C213.237986,361.679995 211.324005,360.624005 210.268,359.568 L208.684,358.116 Z M299.602666,282.084 L299.602666,297 L330.754666,297 C331.45867,297 332.030664,297.219998 332.470666,297.66 C332.910668,298.100002 333.130666,298.671996 333.130666,299.376 L333.130666,304.128 C333.130666,304.832004 332.910668,305.403998 332.470666,305.844 C332.030664,306.284002 331.45867,306.504 330.754666,306.504 L299.602666,306.504 L299.602666,342.012 C299.602666,345.620018 300.746655,348.655988 303.034666,351.12 C305.322677,353.584012 308.578645,354.816 312.802666,354.816 C316.498685,354.816 319.402655,353.738011 321.514666,351.582 C323.626677,349.425989 324.858664,347.072013 325.210666,344.52 C325.386667,343.023993 326.134659,342.276 327.454666,342.276 L333.394666,342.276 C334.09867,342.276 334.670664,342.517998 335.110666,343.002 C335.550668,343.486002 335.770666,344.035997 335.770666,344.652 C335.770666,346.67601 335.37467,348.72199 334.582666,350.79 C333.790662,352.85801 332.580674,354.947989 330.952666,357.06 C329.324658,359.172011 326.904682,360.909993 323.692666,362.274 C320.48065,363.638007 316.762687,364.32 312.538666,364.32 C304.706627,364.32 298.810686,362.29602 294.850666,358.248 C290.890646,354.19998 288.910666,349.14003 288.910666,343.068 L288.910666,306.504 L279.142666,306.504 C278.526663,306.504 277.976668,306.284002 277.492666,305.844 C277.008664,305.403998 276.766666,304.832004 276.766666,304.128 L276.766666,299.376 C276.766666,298.671996 277.008664,298.100002 277.492666,297.66 C277.976668,297.219998 278.526663,297 279.142666,297 L288.910666,297 L288.910666,282.084 C288.910666,280.499992 289.922656,279.708 291.946666,279.708 L296.698666,279.708 C298.634676,279.708 299.602666,280.499992 299.602666,282.084 Z M415.469332,319.968 L415.469332,340.032 C415.469332,346.808034 413.027356,352.549976 408.143332,357.258 C403.259308,361.966024 396.98937,364.32 389.333332,364.32 C381.501293,364.32 375.165356,361.966024 370.325332,357.258 C365.485308,352.549976 363.065332,346.764034 363.065332,339.9 L363.065332,319.968 C363.065332,313.191966 365.507308,307.450024 370.391332,302.742 C375.275356,298.033976 381.589293,295.68 389.333332,295.68 C396.98937,295.68 403.259308,298.055976 408.143332,302.808 C413.027356,307.560024 415.469332,313.279967 415.469332,319.968 Z M404.645332,340.692 L404.645332,319.308 C404.645332,315.34798 403.259346,311.982014 400.487332,309.21 C397.715318,306.437986 393.997355,305.052 389.333332,305.052 C384.669309,305.052 380.907346,306.437986 378.047332,309.21 C375.187318,311.982014 373.757332,315.34798 373.757332,319.308 L373.757332,340.56 C373.757332,344.52002 375.187318,347.907986 378.047332,350.724 C380.907346,353.540014 384.669309,354.948 389.333332,354.948 C393.997355,354.948 397.715318,353.562014 400.487332,350.79 C403.259346,348.017986 404.645332,344.65202 404.645332,340.692 Z M224.524,437.316 C219.947977,437.316 216.230014,438.723986 213.37,441.54 C210.509986,444.356014 209.08,447.699981 209.08,451.572 L209.08,472.56 C209.08,476.60802 210.509986,480.017986 213.37,482.79 C216.230014,485.562014 219.991977,486.948 224.656,486.948 C228.880021,486.948 232.245987,485.716012 234.754,483.252 C237.262013,480.787988 238.691998,478.148014 239.044,475.332 C239.220001,473.835993 240.011993,473.088 241.42,473.088 L247.492,473.088 C248.108003,473.088 248.657998,473.307998 249.142,473.748 C249.626002,474.188002 249.868,474.759996 249.868,475.464 C249.868,480.040023 247.602023,484.659977 243.07,489.324 C238.537977,493.988023 232.356039,496.32 224.524,496.32 C216.691961,496.32 210.378024,493.900024 205.582,489.06 C200.785976,484.219976 198.388,478.500033 198.388,471.9 L198.388,451.968 C198.388,445.279967 200.807976,439.560024 205.648,434.808 C210.488024,430.055976 216.779961,427.68 224.524,427.68 C228.924022,427.68 232.817983,428.427993 236.206,429.924 C239.594017,431.420007 242.189991,433.333988 243.994,435.666 C245.798009,437.998012 247.139996,440.285989 248.02,442.53 C248.900004,444.774011 249.34,446.86399 249.34,448.8 C249.34,449.504004 249.098002,450.075998 248.614,450.516 C248.129998,450.956002 247.580003,451.176 246.964,451.176 L240.892,451.176 C239.483993,451.176 238.692001,450.428007 238.516,448.932 C238.339999,447.787994 238.032002,446.666005 237.592,445.566 C237.151998,444.465994 236.448005,443.234007 235.48,441.87 C234.511995,440.505993 233.082009,439.406004 231.19,438.57 C229.297991,437.733996 227.076013,437.316 224.524,437.316 Z M315.970666,427.68 C322.042696,427.68 326.860648,429.68198 330.424666,433.686 C333.988684,437.69002 335.770666,441.627981 335.770666,445.5 C335.770666,447.084008 335.022674,447.876 333.526666,447.876 L327.454666,447.876 C326.046659,447.876 325.254667,447.128007 325.078666,445.632 C324.814665,443.519989 323.780675,441.584009 321.976666,439.824 C320.172657,438.063991 317.90668,437.184 315.178666,437.184 C311.482648,437.184 308.22668,438.503987 305.410666,441.144 C302.594652,443.784013 301.186666,446.775983 301.186666,450.12 L301.186666,485.496 L326.398666,485.496 C327.014669,485.496 327.564664,485.715998 328.048666,486.156 C328.532668,486.596002 328.774666,487.167996 328.774666,487.872 L328.774666,492.624 C328.774666,493.328004 328.532668,493.899998 328.048666,494.34 C327.564664,494.780002 327.014669,495 326.398666,495 L279.142666,495 C278.526663,495 277.976668,494.780002 277.492666,494.34 C277.008664,493.899998 276.766666,493.328004 276.766666,492.624 L276.766666,487.872 C276.766666,487.167996 277.008664,486.596002 277.492666,486.156 C277.976668,485.715998 278.526663,485.496 279.142666,485.496 L290.626666,485.496 L290.626666,431.376 C290.626666,429.791992 291.638656,429 293.662666,429 L297.886666,429 C299.910676,429 300.922666,429.791992 300.922666,431.376 L300.922666,434.676 C304.442684,430.011977 309.458633,427.68 315.970666,427.68 Z M403.193332,462.792 L385.901332,463.98 C382.469315,464.244001 379.609344,465.453989 377.321332,467.61 C375.033321,469.766011 373.889332,472.427984 373.889332,475.596 C373.889332,478.676015 375.14332,481.315989 377.651332,483.516 C380.159345,485.716011 383.217314,486.816 386.825332,486.816 C391.489355,486.816 395.383316,485.474013 398.507332,482.79 C401.631348,480.105987 403.193332,477.268015 403.193332,474.276 L403.193332,462.792 Z M413.885332,449.064 L413.885332,492.624 C413.885332,494.208008 412.873342,495 410.849332,495 L406.625332,495 C404.601322,495 403.589332,494.208008 403.589332,492.624 L403.589332,489.192 C403.14933,489.720003 402.511336,490.379996 401.675332,491.172 C400.839328,491.964004 398.947347,493.019993 395.999332,494.34 C393.051317,495.660007 389.81735,496.32 386.297332,496.32 C379.9613,496.32 374.549355,494.36202 370.061332,490.446 C365.57331,486.52998 363.329332,481.624029 363.329332,475.728 C363.329332,470.007971 365.441311,465.14602 369.665332,461.142 C373.889353,457.13798 379.037302,454.916002 385.109332,454.476 L403.193332,453.288 L403.193332,449.856 C403.193332,446.423983 402.005344,443.476012 399.629332,441.012 C397.25332,438.547988 394.129351,437.316 390.257332,437.316 C386.913315,437.316 384.141343,438.019993 381.941332,439.428 C379.741321,440.836007 378.245336,442.595989 377.453332,444.708 C376.749329,446.204007 375.957336,446.952 375.077332,446.952 L369.533332,446.952 C368.829329,446.952 368.257334,446.732002 367.817332,446.292 C367.37733,445.851998 367.157332,445.280004 367.157332,444.576 C367.157332,441.143983 369.35731,437.47002 373.757332,433.554 C378.157354,429.63798 383.657299,427.68 390.257332,427.68 C397.82537,427.68 403.655312,429.70398 407.747332,433.752 C411.839353,437.80002 413.885332,442.903969 413.885332,449.064 Z M224.524,569.316 C219.947977,569.316 216.230014,570.723986 213.37,573.54 C210.509986,576.356014 209.08,579.699981 209.08,583.572 L209.08,604.56 C209.08,608.60802 210.509986,612.017986 213.37,614.79 C216.230014,617.562014 219.991977,618.948 224.656,618.948 C228.880021,618.948 232.245987,617.716012 234.754,615.252 C237.262013,612.787988 238.691998,610.148014 239.044,607.332 C239.220001,605.835993 240.011993,605.088 241.42,605.088 L247.492,605.088 C248.108003,605.088 248.657998,605.307998 249.142,605.748 C249.626002,606.188002 249.868,606.759996 249.868,607.464 C249.868,612.040023 247.602023,616.659977 243.07,621.324 C238.537977,625.988023 232.356039,628.32 224.524,628.32 C216.691961,628.32 210.378024,625.900024 205.582,621.06 C200.785976,616.219976 198.388,610.500033 198.388,603.9 L198.388,583.968 C198.388,577.279967 200.807976,571.560024 205.648,566.808 C210.488024,562.055976 216.779961,559.68 224.524,559.68 C228.924022,559.68 232.817983,560.427993 236.206,561.924 C239.594017,563.420007 242.189991,565.333988 243.994,567.666 C245.798009,569.998012 247.139996,572.285989 248.02,574.53 C248.900004,576.774011 249.34,578.86399 249.34,580.8 C249.34,581.504004 249.098002,582.075998 248.614,582.516 C248.129998,582.956002 247.580003,583.176 246.964,583.176 L240.892,583.176 C239.483993,583.176 238.692001,582.428007 238.516,580.932 C238.339999,579.787994 238.032002,578.666005 237.592,577.566 C237.151998,576.465994 236.448005,575.234007 235.48,573.87 C234.511995,572.505993 233.082009,571.406004 231.19,570.57 C229.297991,569.733996 227.076013,569.316 224.524,569.316 Z M334.186666,565.356 L302.902666,648.384 C302.374663,649.968008 301.318674,650.76 299.734666,650.76 L294.454666,650.76 C292.958659,650.76 292.210666,650.232005 292.210666,649.176 C292.210666,648.647997 292.430664,647.724007 292.870666,646.404 L300.658666,624.888 L278.482666,565.356 C278.042664,564.035993 277.822666,563.112003 277.822666,562.584 C277.822666,561.527995 278.570659,561 280.066666,561 L286.138666,561 C287.722674,561 288.778663,561.791992 289.306666,563.376 L306.598666,611.424 L323.758666,563.376 C324.286669,561.791992 325.342658,561 326.926666,561 L332.602666,561 C334.098674,561 334.846666,561.527995 334.846666,562.584 C334.846666,563.112003 334.626668,564.035993 334.186666,565.356 Z" id="Cryptocracy" stroke="none" fill="#F2F1F1" fill-rule="evenodd"></path>
</svg>
